<svg xmlns="http://www.w3.org/2000/svg" viewBox="0 0 552.06 157.97"><defs><style>.cls-1{fill:#e6007e;}.cls-2{fill:none;stroke:#e6007e;stroke-miterlimit:10;stroke-width:10px;}</style></defs><g id="Livello_2" data-name="Livello 2"><g id="Livello_8" data-name="Livello 8"><path class="cls-1" d="M68,24.62V71h0A46.21,46.21,0,1,0,92.4,111.76V33ZM46.2,133.54A21.78,21.78,0,1,1,68,111.76,21.78,21.78,0,0,1,46.2,133.54Z"/><path class="cls-1" d="M179.93,65.07v5.45a46.2,46.2,0,1,0,0,81.5v5.45h24.43V65.07Zm-21.77,68a21.78,21.78,0,1,1,21.77-21.78A21.78,21.78,0,0,1,158.16,133.05Z"/><polygon class="cls-1" points="231.11 33.78 231.11 157.47 255.53 157.47 255.53 25.12 231.11 33.78"/><rect class="cls-1" x="297.71" y="89.49" width="24.42" height="67.73"/><circle class="cls-1" cx="309.92" cy="65.07" r="12.21"/><path class="cls-1" d="M405.61,65.07a46,46,0,0,0-21.78,5.45V65.07H359.41v92.4h24.42v-46.2a21.78,21.78,0,1,1,43.56,0v46.2h24.43v-46.2A46.2,46.2,0,0,0,405.61,65.07Z"/><polygon class="cls-1" points="552.06 44.92 521.66 44.92 499.13 75.33 499.13 25.12 474.71 33.78 474.71 157.47 499.13 157.47 499.13 127.07 521.66 157.47 552.06 157.47 510.36 101.2 552.06 44.92"/><path class="cls-2" d="M333.55,40.75a33.41,33.41,0,0,0-47.25,1"/><path class="cls-2" d="M344.86,18.86a49.72,49.72,0,0,0-70.34,1.46"/></g></g></svg>