<svg xmlns="http://www.w3.org/2000/svg" viewBox="0 0 1080 720"><defs><style>.cls-1{fill:#fff;}.cls-2{fill:#e6007e;}.cls-3{fill:none;stroke:#e6007e;stroke-miterlimit:10;stroke-width:10px;}</style></defs><g id="Livello_2" data-name="Livello 2"><g id="white-blu"><rect id="background" class="cls-1" width="1080" height="720"/></g><g id="Livello_8" data-name="Livello 8"><path class="cls-2" d="M308,290.06v46.38h0a46.2,46.2,0,1,0,24.42,40.75V298.39ZM286.25,399A21.78,21.78,0,1,1,308,377.2,21.78,21.78,0,0,1,286.25,399Z"/><path class="cls-2" d="M420,330.5V336a46.2,46.2,0,1,0,0,81.5v5.45h24.43V330.5Zm-21.78,68A21.78,21.78,0,1,1,420,376.7,21.78,21.78,0,0,1,398.2,398.48Z"/><polygon class="cls-2" points="471.15 299.21 471.15 422.9 495.58 422.9 495.58 290.55 471.15 299.21"/><rect class="cls-2" x="537.76" y="354.92" width="24.42" height="67.73"/><circle class="cls-2" cx="549.97" cy="330.5" r="12.21"/><path class="cls-2" d="M645.66,330.5A46.08,46.08,0,0,0,623.88,336V330.5H599.46v92.4h24.42V376.7a21.78,21.78,0,0,1,43.56,0v46.2h24.42V376.7A46.2,46.2,0,0,0,645.66,330.5Z"/><polygon class="cls-2" points="792.11 310.36 761.71 310.36 739.18 340.76 739.18 290.55 714.76 299.21 714.76 422.9 739.18 422.9 739.18 392.5 761.71 422.9 792.11 422.9 750.41 366.63 792.11 310.36"/><path class="cls-3" d="M573.59,306.19a33.38,33.38,0,0,0-47.24,1"/><path class="cls-3" d="M584.9,284.29a49.73,49.73,0,0,0-70.34,1.46"/></g></g></svg>